<svg width="35" height="35" viewBox="0 0 35 35" fill="none" xmlns="http://www.w3.org/2000/svg">
<rect width="35" height="35" rx="7" fill="#27AE60"/>
<path d="M20 7H12C11.4696 7 10.9609 7.21071 10.5858 7.58579C10.2107 7.96086 10 8.46957 10 9V25C10 25.5304 10.2107 26.0391 10.5858 26.4142C10.9609 26.7893 11.4696 27 12 27H24C24.5304 27 25.0391 26.7893 25.4142 26.4142C25.7893 26.0391 26 25.5304 26 25V13L20 7ZM15.239 21.446C15.239 22.598 14.688 23 13.801 23C13.591 23 13.315 22.964 13.136 22.903L13.237 22.166C13.364 22.208 13.526 22.238 13.706 22.238C14.09 22.238 14.329 22.064 14.329 21.434V18.891H15.24V21.446H15.239ZM18.533 21.081C18.22 21.374 17.76 21.507 17.22 21.507C17.1 21.507 16.992 21.5 16.908 21.488V22.933H16.002V18.945C16.411 18.8834 16.8244 18.8557 17.238 18.862C17.801 18.862 18.203 18.969 18.472 19.185C18.731 19.389 18.905 19.725 18.905 20.121C18.905 20.517 18.772 20.853 18.533 21.081ZM22.864 22.748C22.584 22.844 22.049 22.976 21.515 22.976C20.778 22.976 20.244 22.79 19.872 22.43C19.501 22.082 19.297 21.555 19.302 20.961C19.309 19.617 20.285 18.85 21.611 18.85C22.132 18.85 22.535 18.953 22.732 19.048L22.541 19.779C22.319 19.683 22.044 19.605 21.6 19.605C20.839 19.605 20.262 20.037 20.262 20.913C20.262 21.746 20.785 22.238 21.533 22.238C21.744 22.238 21.911 22.214 21.984 22.177V21.331H21.36V20.618H22.864V22.748ZM20 14H19V9L24 14H20Z" fill="white"/>
<path d="M17.2852 19.5518C17.0992 19.5518 16.9732 19.5698 16.9082 19.5878V20.7808C16.9852 20.7988 17.0822 20.8038 17.2152 20.8038C17.6992 20.8038 17.9992 20.5578 17.9992 20.1448C17.9992 19.7728 17.7422 19.5518 17.2852 19.5518Z" fill="white"/>
</svg>
