<svg width="35" height="35" viewBox="0 0 35 35" fill="none" xmlns="http://www.w3.org/2000/svg">
<rect width="35" height="35" rx="7" fill="#2F80ED"/>
<path d="M19.5443 16.4565C18.7252 15.6377 17.6144 15.1777 16.4563 15.1777C15.2981 15.1777 14.1874 15.6377 13.3683 16.4565L10.2793 19.5444C9.46018 20.3636 9 21.4745 9 22.6329C9 23.7914 9.46018 24.9023 10.2793 25.7215C11.0984 26.5406 12.2094 27.0007 13.3678 27.0007C14.5262 27.0007 15.6372 26.5406 16.4563 25.7215L18.0003 24.1775" stroke="white" stroke-width="2" stroke-linecap="round" stroke-linejoin="round"/>
<path d="M16.4561 19.5443C17.2752 20.3631 18.3859 20.823 19.5441 20.823C20.7022 20.823 21.8129 20.3631 22.6321 19.5443L25.7211 16.4563C26.5402 15.6372 27.0004 14.5262 27.0004 13.3678C27.0004 12.2094 26.5402 11.0984 25.7211 10.2793C24.9019 9.46018 23.791 9 22.6326 9C21.4741 9 20.3632 9.46018 19.5441 10.2793L18.0001 11.8233" stroke="white" stroke-width="2" stroke-linecap="round" stroke-linejoin="round"/>
</svg>
