<svg width="35" height="35" viewBox="0 0 35 35" fill="none" xmlns="http://www.w3.org/2000/svg">
<rect width="35" height="35" rx="7" fill="#9B51E0"/>
<path d="M14.2665 20.6797C14.0825 20.6797 13.9585 20.6977 13.8945 20.7157V21.8937C13.9705 21.9117 14.0655 21.9167 14.1965 21.9167C14.6755 21.9167 14.9705 21.6747 14.9705 21.2657C14.9705 20.8997 14.7165 20.6797 14.2665 20.6797ZM17.7535 20.6917C17.5535 20.6917 17.4235 20.7097 17.3465 20.7277V23.3377C17.4235 23.3557 17.5475 23.3557 17.6595 23.3557C18.4765 23.3617 19.0085 22.9117 19.0085 21.9597C19.0145 21.1297 18.5295 20.6917 17.7535 20.6917Z" fill="white"/>
<path d="M20 8H12C11.4696 8 10.9609 8.21071 10.5858 8.58579C10.2107 8.96086 10 9.46957 10 10V26C10 26.5304 10.2107 27.0391 10.5858 27.4142C10.9609 27.7893 11.4696 28 12 28H24C24.5304 28 25.0391 27.7893 25.4142 27.4142C25.7893 27.0391 26 26.5304 26 26V14L20 8ZM15.498 22.19C15.189 22.48 14.733 22.61 14.202 22.61C14.099 22.6111 13.9961 22.6051 13.894 22.592V24.018H13V20.082C13.4035 20.0218 13.8111 19.9944 14.219 20C14.776 20 15.172 20.106 15.439 20.319C15.693 20.521 15.865 20.852 15.865 21.242C15.864 21.634 15.734 21.965 15.498 22.19ZM19.305 23.545C18.885 23.894 18.246 24.06 17.465 24.06C16.997 24.06 16.666 24.03 16.441 24V20.083C16.8446 20.0241 17.2521 19.9963 17.66 20C18.417 20 18.909 20.136 19.293 20.426C19.708 20.734 19.968 21.225 19.968 21.93C19.968 22.693 19.689 23.22 19.305 23.545ZM23 20.77H21.468V21.681H22.9V22.415H21.468V24.019H20.562V20.03H23V20.77ZM20 15H19V10L24 15H20Z" fill="white"/>
</svg>
