<svg width="35" height="35" viewBox="0 0 35 35" fill="none" xmlns="http://www.w3.org/2000/svg">
<rect width="35" height="35" rx="7" fill="#F2C94C"/>
<g clip-path="url(#clip0_921_30)">
<path d="M6.00293 10.5C6.00293 9.70435 6.319 8.94129 6.88161 8.37868C7.44422 7.81607 8.20728 7.5 9.00293 7.5H27.0029C27.7986 7.5 28.5616 7.81607 29.1243 8.37868C29.6869 8.94129 30.0029 9.70435 30.0029 10.5V25.5C30.0029 26.2956 29.6869 27.0587 29.1243 27.6213C28.5616 28.1839 27.7986 28.5 27.0029 28.5H9.00293C8.20728 28.5 7.44422 28.1839 6.88161 27.6213C6.319 27.0587 6.00293 26.2956 6.00293 25.5V10.5ZM7.50293 24V25.5C7.50293 25.8978 7.66097 26.2794 7.94227 26.5607C8.22357 26.842 8.6051 27 9.00293 27H27.0029C27.4008 27 27.7823 26.842 28.0636 26.5607C28.3449 26.2794 28.5029 25.8978 28.5029 25.5V20.25L22.8374 17.3295C22.6968 17.259 22.5375 17.2346 22.3822 17.2596C22.2269 17.2847 22.0833 17.3579 21.9719 17.469L16.4069 23.034L12.4169 20.376C12.2729 20.2801 12.1001 20.237 11.9278 20.2539C11.7556 20.2709 11.5945 20.3468 11.4719 20.469L7.50293 24ZM15.0029 14.25C15.0029 13.6533 14.7659 13.081 14.3439 12.659C13.922 12.2371 13.3497 12 12.7529 12C12.1562 12 11.5839 12.2371 11.1619 12.659C10.74 13.081 10.5029 13.6533 10.5029 14.25C10.5029 14.8467 10.74 15.419 11.1619 15.841C11.5839 16.2629 12.1562 16.5 12.7529 16.5C13.3497 16.5 13.922 16.2629 14.3439 15.841C14.7659 15.419 15.0029 14.8467 15.0029 14.25Z" fill="white"/>
</g>
<defs>
<clipPath id="clip0_921_30">
<rect width="24" height="24" fill="white" transform="translate(6 6)"/>
</clipPath>
</defs>
</svg>
