<svg width="35" height="35" viewBox="0 0 35 35" fill="none" xmlns="http://www.w3.org/2000/svg">
<rect width="35" height="35" rx="7" fill="#F2F2F2"/>
<path d="M6 10.9C6 9.86566 6.41089 8.87368 7.14228 8.14228C7.87368 7.41089 8.86566 7 9.9 7H26.1C26.6122 7 27.1193 7.10088 27.5925 7.29687C28.0656 7.49286 28.4956 7.78013 28.8577 8.14228C29.2199 8.50443 29.5071 8.93436 29.7031 9.40753C29.8991 9.8807 30 10.3878 30 10.9V24.7C30 25.2122 29.8991 25.7193 29.7031 26.1925C29.5071 26.6656 29.2199 27.0956 28.8577 27.4577C28.4956 27.8199 28.0656 28.1071 27.5925 28.3031C27.1193 28.4991 26.6122 28.6 26.1 28.6H9.9C8.86566 28.6 7.87368 28.1891 7.14228 27.4577C6.41089 26.7263 6 25.7343 6 24.7V10.9ZM15 14.6608V20.938C15 21.622 15.732 22.0564 16.332 21.7276L22.0752 18.5884C22.2169 18.5109 22.3351 18.3967 22.4175 18.2578C22.4998 18.1188 22.5433 17.9603 22.5433 17.7988C22.5433 17.6373 22.4998 17.4788 22.4175 17.3398C22.3351 17.2009 22.2169 17.0867 22.0752 17.0092L16.332 13.8712C16.1949 13.7962 16.0407 13.7582 15.8845 13.7609C15.7283 13.7636 15.5755 13.8069 15.4411 13.8865C15.3067 13.9662 15.1953 14.0795 15.118 14.2153C15.0407 14.351 15 14.5046 15 14.6608Z" fill="#EB5757"/>
</svg>
