<svg width="24" height="24" viewBox="0 0 24 24" fill="none" xmlns="http://www.w3.org/2000/svg">
<path d="M23.3529 10.885C23.622 10.6749 23.8216 10.3819 23.9237 10.047C24.0259 9.71204 24.0254 9.35202 23.9224 9.01739C23.8194 8.68275 23.6191 8.39029 23.3494 8.18099C23.0798 7.9717 22.7544 7.85608 22.4189 7.85033L15.9026 7.59239C15.8705 7.59007 15.8398 7.5781 15.8141 7.55791C15.7884 7.53772 15.7688 7.51017 15.7578 7.47859L13.506 1.10586C13.3929 0.781639 13.1874 0.501677 12.9174 0.303879C12.6473 0.106081 12.3258 0 11.9964 0C11.6669 0 11.3454 0.106081 11.0754 0.303879C10.8054 0.501677 10.5999 0.781639 10.4868 1.10586L8.24225 7.50135C8.23116 7.53293 8.21158 7.56048 8.18589 7.58067C8.1602 7.60086 8.12948 7.61283 8.09744 7.61515L1.58111 7.8731C1.2456 7.87884 0.920211 7.99446 0.650576 8.20375C0.380941 8.41305 0.18058 8.70552 0.0775856 9.04015C-0.0254086 9.37478 -0.0258707 9.7348 0.0762641 10.0697C0.178399 10.4046 0.378009 10.6977 0.647106 10.9077L5.7588 15.1183C5.78439 15.1394 5.80351 15.1679 5.8138 15.2002C5.8241 15.2326 5.82511 15.2674 5.81673 15.3004L4.05732 21.8324C3.96615 22.165 3.97498 22.519 4.08261 22.8462C4.19025 23.1734 4.39146 23.4579 4.65888 23.661C4.9263 23.8641 5.24694 23.976 5.57718 23.9814C5.90742 23.9867 6.23123 23.8854 6.50456 23.6911L11.9059 19.8978C11.9325 19.8786 11.964 19.8683 11.9964 19.8683C12.0287 19.8683 12.0603 19.8786 12.0869 19.8978L17.4882 23.6911C17.7578 23.892 18.0805 24 18.4113 24C18.7422 24 19.0649 23.892 19.3345 23.6911C19.602 23.4899 19.8034 23.2068 19.911 22.8808C20.0186 22.5547 20.0272 22.2017 19.9354 21.8703L18.1616 15.3155C18.1522 15.2826 18.1527 15.2475 18.163 15.2149C18.1734 15.1823 18.1931 15.1539 18.2195 15.1335L23.3529 10.885Z" fill="#F2C94C"/>
</svg>
