<svg width="24" height="24" viewBox="0 0 24 24" fill="none" xmlns="http://www.w3.org/2000/svg">
<circle cx="12" cy="12" r="11.5" stroke="#4F4F4F"/>
<path d="M17.4879 15.3033C17.048 14.863 16.5338 14.5036 15.9692 14.2416C16.7655 13.5965 17.2735 12.6121 17.2735 11.5082C17.2735 9.56057 15.6493 7.96272 13.7016 7.9926C11.7838 8.02248 10.2387 9.58518 10.2387 11.5082C10.2387 12.6121 10.7485 13.5965 11.543 14.2416C10.9782 14.5034 10.4641 14.8628 10.0243 15.3033C9.0645 16.2649 8.51958 17.534 8.48442 18.8875C8.48395 18.9063 8.48724 18.9249 8.4941 18.9424C8.50095 18.9599 8.51124 18.9758 8.52434 18.9892C8.53745 19.0027 8.55311 19.0133 8.5704 19.0206C8.5877 19.0279 8.60628 19.0317 8.62504 19.0317H9.60942C9.685 19.0317 9.74829 18.9719 9.75004 18.8963C9.78344 17.8768 10.1965 16.9223 10.9225 16.1981C11.294 15.8246 11.7359 15.5285 12.2226 15.327C12.7093 15.1254 13.2311 15.0224 13.7579 15.0238C14.8284 15.0238 15.8356 15.4405 16.5932 16.1981C17.3174 16.9223 17.7305 17.8768 17.7657 18.8963C17.7674 18.9719 17.8307 19.0317 17.9063 19.0317H18.8907C18.9094 19.0317 18.928 19.0279 18.9453 19.0206C18.9626 19.0133 18.9783 19.0027 18.9914 18.9892C19.0045 18.9758 19.0148 18.9599 19.0216 18.9424C19.0285 18.9249 19.0318 18.9063 19.0313 18.8875C18.9961 17.534 18.4512 16.2649 17.4879 15.3033ZM13.7579 13.7582C13.1567 13.7582 12.5907 13.5244 12.167 13.099C11.9544 12.8881 11.7865 12.6365 11.6732 12.3593C11.56 12.082 11.5037 11.7848 11.5079 11.4854C11.5131 10.9088 11.7434 10.3516 12.1459 9.9385C12.5678 9.50608 13.1321 9.26526 13.735 9.25822C14.3309 9.25295 14.9092 9.48498 15.3346 9.90158C15.7706 10.3287 16.0096 10.9 16.0096 11.5082C16.0096 12.1094 15.7758 12.6737 15.3504 13.099C15.1417 13.3087 14.8935 13.475 14.6202 13.5881C14.3468 13.7013 14.0537 13.7591 13.7579 13.7582ZM9.35454 11.9723C9.33872 11.8194 9.32993 11.6647 9.32993 11.5082C9.32993 11.2287 9.35629 10.9563 9.40551 10.6908C9.41782 10.6276 9.38442 10.5625 9.32641 10.5362C9.08735 10.4289 8.86762 10.2813 8.67778 10.0949C8.45408 9.87804 8.27805 9.61689 8.16092 9.32816C8.04379 9.03942 7.98814 8.72944 7.9975 8.41799C8.01332 7.85373 8.24008 7.3176 8.63559 6.9133C9.06977 6.46858 9.65336 6.226 10.2739 6.23303C10.8346 6.2383 11.376 6.45451 11.7856 6.83772C11.9245 6.9678 12.044 7.11194 12.1442 7.26662C12.1793 7.32112 12.2479 7.34397 12.3077 7.32287C12.617 7.21565 12.944 7.14006 13.2797 7.1049C13.3782 7.09436 13.4344 6.98889 13.3905 6.901C12.8192 5.77072 11.652 4.99026 10.302 4.96916C8.35258 4.93928 6.72836 6.53713 6.72836 8.48303C6.72836 9.58694 7.23637 10.5713 8.03266 11.2164C7.47368 11.4748 6.95864 11.8317 6.51215 12.2781C5.54887 13.2397 5.00395 14.5088 4.96879 15.8641C4.96832 15.8828 4.97162 15.9015 4.97847 15.919C4.98533 15.9364 4.99561 15.9524 5.00872 15.9658C5.02182 15.9792 5.03748 15.9899 5.05478 15.9972C5.07207 16.0045 5.09065 16.0082 5.10942 16.0082H6.09555C6.17114 16.0082 6.23442 15.9485 6.23618 15.8729C6.26958 14.8533 6.68266 13.8988 7.40864 13.1746C7.92543 12.6578 8.55825 12.2992 9.24907 12.1252C9.31762 12.1076 9.36333 12.0426 9.35454 11.9723Z" fill="#4F4F4F"/>
</svg>
