<svg width="24" height="24" viewBox="0 0 24 24" fill="none" xmlns="http://www.w3.org/2000/svg">
<path d="M12.0671 7.33337C9.46706 7.33337 7.40039 9.40004 7.40039 12C7.40039 14.6 9.46706 16.6667 12.0671 16.6667C14.6671 16.6667 16.7337 14.6 16.7337 12C16.7337 9.40004 14.6671 7.33337 12.0671 7.33337ZM12.0671 15.3334C10.2004 15.3334 8.73372 13.8667 8.73372 12C8.73372 10.1334 10.2004 8.66671 12.0671 8.66671C13.9337 8.66671 15.4004 10.1334 15.4004 12C15.4004 13.8667 13.9337 15.3334 12.0671 15.3334Z" fill="#BDBDBD"/>
<path d="M21.8663 9.80004L19.9997 9.20004L19.5997 8.20004L20.533 6.46671C20.733 6.06671 20.6663 5.53337 20.333 5.20004L18.733 3.60004C18.3997 3.26671 17.8663 3.20004 17.4663 3.40004L15.733 4.33337L14.733 3.93337L14.133 2.06671C13.9997 1.66671 13.5997 1.33337 13.133 1.33337H10.8663C10.3997 1.33337 9.99967 1.66671 9.93301 2.13337L9.33301 4.00004C8.93301 4.06671 8.59967 4.20004 8.26634 4.40004L6.53301 3.46671C6.13301 3.26671 5.59967 3.33337 5.26634 3.66671L3.66634 5.26671C3.33301 5.60004 3.26634 6.13337 3.46634 6.53337L4.33301 8.20004C4.19967 8.53337 4.06634 8.93337 3.93301 9.26671L2.06634 9.86671C1.66634 10 1.33301 10.4 1.33301 10.8667V13.1334C1.33301 13.6 1.66634 14 2.13301 14.1334L3.99967 14.7334L4.39967 15.7334L3.46634 17.4667C3.26634 17.8667 3.33301 18.4 3.66634 18.7334L5.26634 20.3334C5.59967 20.6667 6.13301 20.7334 6.53301 20.5334L8.26634 19.6L9.26634 20L9.86634 21.9334C9.99967 22.3334 10.3997 22.6667 10.8663 22.6667H13.133C13.5997 22.6667 13.9997 22.3334 14.133 21.9334L14.733 20L15.733 19.6L17.4663 20.5334C17.8663 20.7334 18.3997 20.6667 18.733 20.3334L20.333 18.7334C20.6663 18.4 20.733 17.8667 20.533 17.4667L19.5997 15.7334L19.9997 14.7334L21.933 14.1334C22.333 14 22.6663 13.6 22.6663 13.1334V10.8667C22.6663 10.4 22.333 9.93337 21.8663 9.80004ZM21.333 12.9334L18.933 13.6667L18.8663 14L18.2663 15.4L18.0663 15.7334L19.2663 17.9334L17.933 19.2667L15.733 18.0667L15.3997 18.2667C14.933 18.5334 14.4663 18.7334 13.9997 18.8667L13.6663 18.9334L12.933 21.3334H11.0663L10.333 18.9334L9.99967 18.8667L8.59967 18.2667L8.26634 18.0667L6.06634 19.2667L4.73301 17.9334L5.93301 15.7334L5.73301 15.4C5.46634 14.9334 5.26634 14.4667 5.13301 14L5.06634 13.6667L2.66634 12.9334V11.0667L4.93301 10.4L5.06634 10.0667C5.19967 9.53337 5.39967 9.06671 5.66634 8.60004L5.86634 8.26671L4.73301 6.06671L6.06634 4.73337L8.19967 5.93337L8.53301 5.73337C8.99967 5.46671 9.46634 5.26671 9.99967 5.13337L10.333 5.00004L11.0663 2.66671H12.933L13.6663 5.00004L13.9997 5.13337C14.4663 5.26671 14.933 5.46671 15.3997 5.73337L15.733 5.93337L17.933 4.73337L19.2663 6.06671L18.0663 8.26671L18.2663 8.60004C18.533 9.06671 18.733 9.53337 18.8663 10L18.933 10.3334L21.333 11.0667V12.9334Z" fill="#BDBDBD"/>
</svg>
