<svg width="37" height="37" viewBox="0 0 37 37" fill="none" xmlns="http://www.w3.org/2000/svg">
<circle cx="18.5" cy="18.5" r="18.5" fill="#F8B849"/>
<path d="M27.0001 15.502V14.75C27.0001 14.4545 26.9419 14.1619 26.8288 13.889C26.7157 13.616 26.55 13.3679 26.3411 13.159C26.1322 12.9501 25.8841 12.7843 25.6111 12.6713C25.3382 12.5582 25.0456 12.5 24.7501 12.5H19.0251L16.6451 10.52C16.2404 10.1834 15.7305 9.99944 15.2041 10H11.2501C10.6534 10 10.0811 10.2371 9.6591 10.659C9.23715 11.081 9.00009 11.6533 9.00009 12.25L8.99609 23.75C8.99609 24.0455 9.05429 24.3381 9.16736 24.611C9.28044 24.884 9.44617 25.1321 9.6551 25.341C9.86404 25.5499 10.1121 25.7157 10.3851 25.8287C10.658 25.9418 10.9506 26 11.2461 26H25.4701C25.8603 26.0001 26.2394 25.8697 26.5471 25.6297C26.8547 25.3896 27.0733 25.0536 27.1681 24.675L28.9181 17.677C28.9827 17.4189 28.9876 17.1495 28.9325 16.8893C28.8773 16.629 28.7636 16.3848 28.5999 16.1751C28.4362 15.9654 28.2268 15.7958 27.9877 15.6792C27.7487 15.5625 27.4861 15.5019 27.2201 15.502H27.0001ZM11.2501 11.5H15.2061C15.3814 11.4998 15.5512 11.561 15.6861 11.673L18.2741 13.827C18.409 13.939 18.5788 14.0002 18.7541 14H24.7501C24.949 14 25.1398 14.079 25.2804 14.2197C25.4211 14.3603 25.5001 14.5511 25.5001 14.75V15.502H13.4241C12.9223 15.5019 12.4349 15.6696 12.0394 15.9784C11.6438 16.2871 11.3629 16.7192 11.2411 17.206L10.4971 20.184L10.5001 12.25C10.5001 12.0511 10.5791 11.8603 10.7198 11.7197C10.8604 11.579 11.0512 11.5 11.2501 11.5ZM12.6971 17.57C12.7377 17.4079 12.8312 17.2639 12.9629 17.161C13.0946 17.0581 13.2569 17.0021 13.4241 17.002H27.2201C27.258 17.0021 27.2953 17.0108 27.3293 17.0275C27.3634 17.0441 27.3932 17.0683 27.4165 17.0982C27.4398 17.128 27.456 17.1628 27.4639 17.1998C27.4718 17.2369 27.4712 17.2752 27.4621 17.312L25.7121 24.311C25.6985 24.3649 25.6674 24.4128 25.6235 24.447C25.5797 24.4813 25.5257 24.4999 25.4701 24.5H11.2851C11.2471 24.5 11.2097 24.4914 11.1755 24.4749C11.1414 24.4583 11.1115 24.4341 11.088 24.4042C11.0646 24.3744 11.0483 24.3395 11.0403 24.3024C11.0324 24.2653 11.033 24.2269 11.0421 24.19L12.6971 17.57Z" fill="white"/>
</svg>
